<?xml version="1.0" encoding="iso-8859-1"?>
<!-- Generator: Adobe Illustrator 19.0.0, SVG Export Plug-In . SVG Version: 6.00 Build 0)  -->
<svg version="1.1" id="Layer_1" xmlns="http://www.w3.org/2000/svg" xmlns:xlink="http://www.w3.org/1999/xlink" x="0px" y="0px"
	 viewBox="0 0 512 512" style="enable-background:new 0 0 512 512;" xml:space="preserve">
<circle style="fill:#FFCE54;" cx="86.12" cy="33.875" r="16.875"/>
<rect x="130" y="105.34" style="fill:#ED5564;" width="58.664" height="130.66"/>
<rect x="199.33" y="110.66" style="fill:#E6E9ED;" width="51.33" height="118"/>
<rect x="262" y="116.66" style="fill:#ED5564;" width="52.01" height="104"/>
<rect x="325.33" y="119.34" style="fill:#E6E9ED;" width="56.672" height="95.33"/>
<polygon style="fill:#ED5564;" points="439.598,191.008 386.004,207.008 386.004,135.336 439.598,151.336 "/>
<path d="M404.285,120.039L117.34,85.336V96H96.004V62.172C108.434,57.781,117.34,45.93,117.34,32c0-17.672-14.328-32-32-32
	s-32,14.328-32,32c0,13.93,8.906,25.781,21.328,30.172V512h21.336V245.336h21.336V256l286.945-34.711
	c30.781-3.711,54.375-24.961,54.375-50.625C458.66,145.008,435.066,123.75,404.285,120.039z M266.191,124.828l42.672,5.156v81.359
	l-42.672,5.164V124.828z M244.863,219.086l-42.672,5.164V117.086l42.672,5.164V219.086z M330.191,132.57l42.672,5.156v65.875
	l-42.672,5.164V132.57z M85.34,21.336c5.883,0,10.664,4.781,10.664,10.664S91.223,42.664,85.34,42.664S74.668,37.883,74.668,32
	S79.457,21.336,85.34,21.336z M96.004,224V117.336h21.336V224H96.004z M138.668,109.398l42.195,5.109v112.32l-42.195,5.102V109.398z
	 M428.566,188.523c-6.719,6.195-16.25,10.312-26.844,11.586l-7.531,0.914v-60.711l7.547,0.906
	c10.578,1.281,20.109,5.391,26.828,11.594c4,3.688,8.781,9.773,8.781,17.852S432.566,184.836,428.566,188.523z"/>
<g>
</g>
<g>
</g>
<g>
</g>
<g>
</g>
<g>
</g>
<g>
</g>
<g>
</g>
<g>
</g>
<g>
</g>
<g>
</g>
<g>
</g>
<g>
</g>
<g>
</g>
<g>
</g>
<g>
</g>
</svg>
